<svg
   xmlns="http://www.w3.org/2000/svg"
   width="24"
   height="24"
   viewBox="0 0 24 24">
   <path
     d="M 7.651679,8.260903 H 3.230893 A 3.2308934,3.2305209 0 0 1 0,5.030382 V 3.230521 A 3.2308934,3.2305209 0 0 1 3.230893,0 h 4.420786 a 3.2308934,3.2305209 0 0 1 3.230893,3.230521 V 5.030382 A 3.2355089,3.2351358 0 0 1 7.651679,8.260903 Z M 3.230893,1.846012 A 1.3846686,1.3845089 0 0 0 1.846225,3.230521 V 5.030383 A 1.3846686,1.3845089 0 0 0 3.230893,6.414891 H 7.651679 A 1.3846686,1.3845089 0 0 0 9.036347,5.030383 V 3.230521 A 1.3846686,1.3845089 0 0 0 7.651679,1.846012 Z"
     fill="#38bdfe"
     id="path4419"
     style="stroke-width:0.0243402" />
  <path
     d="m 16.353859,24 a 3.2308934,3.2305209 0 0 1 -3.230893,-3.23052 v -1.797093 a 3.2308934,3.2305209 0 0 1 3.230893,-3.23052 h 4.415247 A 3.2308934,3.2305209 0 0 1 24,18.972387 V 20.76948 A 3.2308934,3.2305209 0 0 1 20.769106,24 Z m -1.384668,-5.027613 v 1.797093 a 1.3846686,1.3845089 0 0 0 1.384668,1.384509 h 4.415247 a 1.3846686,1.3845089 0 0 0 1.384669,-1.384509 v -1.797093 a 1.3846686,1.3845089 0 0 0 -1.384669,-1.384508 h -4.415247 a 1.3846686,1.3845089 0 0 0 -1.387438,1.384508 z M 3.231817,24 A 3.2308934,3.2305209 0 0 1 9.23e-4,20.76948 v -7.000077 a 3.2364321,3.236059 0 0 1 3.230894,-3.230521 h 4.420785 a 3.2392015,3.238828 0 0 1 3.230893,3.230521 V 20.76948 A 3.2308934,3.2305209 0 0 1 7.652602,24 Z M 1.847148,13.769403 v 7.000077 a 1.3846686,1.3845089 0 0 0 1.384669,1.384509 H 7.652602 A 1.3846686,1.3845089 0 0 0 9.03727,20.76948 V 13.769403 A 1.3846686,1.3845089 0 0 0 7.652602,12.384894 H 3.231817 A 1.3846686,1.3845089 0 0 0 1.847148,13.769403 Z M 16.353859,13.368818 A 3.2364321,3.236059 0 0 1 13.122966,10.138297 V 3.234213 a 3.2364321,3.236059 0 0 1 3.230893,-3.230521 h 4.415247 A 3.2364321,3.236059 0 0 1 24,3.234213 v 6.904084 a 3.2364321,3.236059 0 0 1 -3.230894,3.230521 z M 14.969191,3.232367 v 6.904085 a 1.3846686,1.3845089 0 0 0 1.384668,1.384508 h 4.415247 a 1.3846686,1.3845089 0 0 0 1.384669,-1.384508 V 3.232367 A 1.3846686,1.3845089 0 0 0 20.769106,1.847858 h -4.415247 a 1.3846686,1.3845089 0 0 0 -1.387438,1.384509 z"
     fill="#231815"
     id="path4421"
     style="fill:#ff6600;stroke-width:0.0243402" />
</svg>
