<svg width="501" height="282" viewBox="0 0 501 282" fill="none" xmlns="http://www.w3.org/2000/svg">
  <g clip-path="url(#clip0_798_54577)">
    <rect width="500.84" height="280.79" transform="translate(0 0.709991)" fill="white"/>
    <path d="M501 204.255H0V281.71H501V204.255Z" fill="url(#paint0_linear_798_54577)"/>
    <g style="mix-blend-mode:multiply">
      <path d="M140.049 232.225H354.329C354.893 232.223 355.433 231.997 355.832 231.599C356.231 231.2 356.456 230.659 356.459 230.095C356.456 229.53 356.231 228.989 355.833 228.589C355.434 228.188 354.894 227.961 354.329 227.955H140.049C139.484 227.961 138.944 228.188 138.545 228.589C138.146 228.989 137.922 229.53 137.919 230.095C137.922 230.659 138.147 231.2 138.546 231.599C138.945 231.997 139.485 232.223 140.049 232.225Z" fill="#D1D3D4"/>
      <path d="M312.499 230.655H262.499C261.731 230.655 261.109 231.278 261.109 232.045V232.435C261.109 233.203 261.731 233.825 262.499 233.825H312.499C313.267 233.825 313.889 233.203 313.889 232.435V232.045C313.889 231.278 313.267 230.655 312.499 230.655Z" fill="#D1D3D4"/>
    </g>
    <path d="M335.811 103.428H170.171C166.421 103.428 163.381 106.468 163.381 110.218V208.328C163.381 212.078 166.421 215.118 170.171 215.118H335.811C339.561 215.118 342.601 212.078 342.601 208.328V110.218C342.601 106.468 339.561 103.428 335.811 103.428Z" fill="#1B7C8C"/>
    <path d="M335.821 215.598H170.171C168.246 215.595 166.401 214.829 165.04 213.468C163.68 212.107 162.914 210.262 162.911 208.338V110.218C162.914 108.293 163.68 106.448 165.04 105.087C166.401 103.726 168.246 102.96 170.171 102.958H335.821C337.746 102.96 339.591 103.726 340.952 105.087C342.313 106.448 343.078 108.293 343.081 110.218V208.338C343.078 210.262 342.313 212.107 340.952 213.468C339.591 214.829 337.746 215.595 335.821 215.598ZM170.171 103.958C168.498 103.96 166.895 104.626 165.712 105.809C164.529 106.991 163.864 108.595 163.861 110.268V208.388C163.864 210.06 164.529 211.664 165.712 212.846C166.895 214.029 168.498 214.695 170.171 214.698H335.821C337.494 214.695 339.097 214.029 340.28 212.846C341.463 211.664 342.128 210.06 342.131 208.388V110.218C342.128 108.545 341.463 106.941 340.28 105.759C339.097 104.576 337.494 103.91 335.821 103.908L170.171 103.958Z" fill="#156E77"/>
    <path d="M314.931 112.258C316.124 112.258 317.091 111.29 317.091 110.098C317.091 108.905 316.124 107.938 314.931 107.938C313.738 107.938 312.771 108.905 312.771 110.098C312.771 111.29 313.738 112.258 314.931 112.258Z" fill="#F8A971"/>
    <path d="M327.381 110.108C327.381 110.535 327.254 110.952 327.017 111.308C326.78 111.663 326.442 111.94 326.048 112.103C325.653 112.267 325.219 112.309 324.8 112.226C324.381 112.143 323.996 111.937 323.694 111.635C323.392 111.333 323.186 110.948 323.103 110.529C323.019 110.11 323.062 109.676 323.225 109.281C323.389 108.886 323.666 108.549 324.021 108.312C324.376 108.074 324.794 107.948 325.221 107.948C325.794 107.948 326.343 108.175 326.748 108.58C327.153 108.985 327.381 109.535 327.381 110.108Z" fill="#25BCAF"/>
    <path d="M335.491 112.258C336.684 112.258 337.651 111.29 337.651 110.098C337.651 108.905 336.684 107.938 335.491 107.938C334.298 107.938 333.331 108.905 333.331 110.098C333.331 111.29 334.298 112.258 335.491 112.258Z" fill="#F08879"/>
    <path d="M337.711 117.028H168.281V210.218H337.711V117.028Z" fill="#F9FBFC"/>
    <rect width="40.5499" height="33.04" transform="translate(223.671 123.628)" fill="#E4EAED"/>
    <path d="M229.621 131.528C230.698 131.528 231.571 130.655 231.571 129.578C231.571 128.501 230.698 127.628 229.621 127.628C228.544 127.628 227.671 128.501 227.671 129.578C227.671 130.655 228.544 131.528 229.621 131.528Z" fill="#F9FBFC"/>
    <path d="M236.791 131.528C237.868 131.528 238.741 130.655 238.741 129.578C238.741 128.501 237.868 127.628 236.791 127.628C235.714 127.628 234.841 128.501 234.841 129.578C234.841 130.655 235.714 131.528 236.791 131.528Z" fill="#F9FBFC"/>
    <path d="M245.901 129.588C245.911 129.985 245.802 130.377 245.588 130.712C245.375 131.047 245.066 131.312 244.701 131.471C244.337 131.63 243.933 131.676 243.542 131.605C243.151 131.534 242.79 131.347 242.505 131.07C242.22 130.792 242.025 130.436 241.944 130.046C241.862 129.657 241.899 129.253 242.049 128.884C242.198 128.516 242.455 128.2 242.785 127.978C243.114 127.756 243.503 127.638 243.901 127.638C244.423 127.637 244.924 127.841 245.298 128.206C245.671 128.57 245.888 129.066 245.901 129.588Z" fill="#F9FBFC"/>
    <path d="M251.111 131.528C252.188 131.528 253.061 130.655 253.061 129.578C253.061 128.501 252.188 127.628 251.111 127.628C250.034 127.628 249.161 128.501 249.161 129.578C249.161 130.655 250.034 131.528 251.111 131.528Z" fill="#F9FBFC"/>
    <path d="M258.271 131.528C259.348 131.528 260.221 130.655 260.221 129.578C260.221 128.501 259.348 127.628 258.271 127.628C257.194 127.628 256.321 128.501 256.321 129.578C256.321 130.655 257.194 131.528 258.271 131.528Z" fill="#F9FBFC"/>
    <path d="M229.621 138.538C230.698 138.538 231.571 137.665 231.571 136.588C231.571 135.511 230.698 134.638 229.621 134.638C228.544 134.638 227.671 135.511 227.671 136.588C227.671 137.665 228.544 138.538 229.621 138.538Z" fill="#F9FBFC"/>
    <path d="M236.791 138.538C237.868 138.538 238.741 137.665 238.741 136.588C238.741 135.511 237.868 134.638 236.791 134.638C235.714 134.638 234.841 135.511 234.841 136.588C234.841 137.665 235.714 138.538 236.791 138.538Z" fill="#F9FBFC"/>
    <path d="M245.901 136.598C245.911 136.995 245.802 137.387 245.588 137.722C245.375 138.057 245.066 138.322 244.701 138.481C244.337 138.64 243.933 138.686 243.542 138.615C243.151 138.544 242.79 138.357 242.505 138.08C242.22 137.802 242.025 137.446 241.944 137.057C241.862 136.667 241.899 136.263 242.049 135.894C242.198 135.526 242.455 135.21 242.785 134.988C243.114 134.766 243.503 134.648 243.901 134.648C244.423 134.647 244.924 134.851 245.298 135.216C245.671 135.58 245.888 136.076 245.901 136.598Z" fill="#F9FBFC"/>
    <path d="M251.111 138.538C252.188 138.538 253.061 137.665 253.061 136.588C253.061 135.511 252.188 134.638 251.111 134.638C250.034 134.638 249.161 135.511 249.161 136.588C249.161 137.665 250.034 138.538 251.111 138.538Z" fill="#F9FBFC"/>
    <path d="M258.271 138.538C259.348 138.538 260.221 137.665 260.221 136.588C260.221 135.511 259.348 134.638 258.271 134.638C257.194 134.638 256.321 135.511 256.321 136.588C256.321 137.665 257.194 138.538 258.271 138.538Z" fill="#F9FBFC"/>
    <path d="M229.621 145.548C230.698 145.548 231.571 144.675 231.571 143.598C231.571 142.521 230.698 141.648 229.621 141.648C228.544 141.648 227.671 142.521 227.671 143.598C227.671 144.675 228.544 145.548 229.621 145.548Z" fill="#F9FBFC"/>
    <path d="M236.791 145.548C237.868 145.548 238.741 144.675 238.741 143.598C238.741 142.521 237.868 141.648 236.791 141.648C235.714 141.648 234.841 142.521 234.841 143.598C234.841 144.675 235.714 145.548 236.791 145.548Z" fill="#F9FBFC"/>
    <path d="M245.901 143.608C245.911 144.005 245.802 144.397 245.588 144.732C245.375 145.067 245.066 145.332 244.701 145.491C244.337 145.65 243.933 145.696 243.542 145.625C243.151 145.554 242.79 145.367 242.505 145.09C242.22 144.812 242.025 144.456 241.944 144.067C241.862 143.677 241.899 143.273 242.049 142.904C242.198 142.536 242.455 142.22 242.785 141.998C243.114 141.776 243.503 141.658 243.901 141.658C244.423 141.657 244.924 141.861 245.298 142.226C245.671 142.59 245.888 143.086 245.901 143.608Z" fill="#F9FBFC"/>
    <path d="M251.111 145.548C252.188 145.548 253.061 144.675 253.061 143.598C253.061 142.521 252.188 141.648 251.111 141.648C250.034 141.648 249.161 142.521 249.161 143.598C249.161 144.675 250.034 145.548 251.111 145.548Z" fill="#F9FBFC"/>
    <path d="M258.271 145.548C259.348 145.548 260.221 144.675 260.221 143.598C260.221 142.521 259.348 141.648 258.271 141.648C257.194 141.648 256.321 142.521 256.321 143.598C256.321 144.675 257.194 145.548 258.271 145.548Z" fill="#F9FBFC"/>
    <path d="M229.621 152.558C230.698 152.558 231.571 151.685 231.571 150.608C231.571 149.531 230.698 148.658 229.621 148.658C228.544 148.658 227.671 149.531 227.671 150.608C227.671 151.685 228.544 152.558 229.621 152.558Z" fill="#F9FBFC"/>
    <path d="M236.791 152.558C237.868 152.558 238.741 151.685 238.741 150.608C238.741 149.531 237.868 148.658 236.791 148.658C235.714 148.658 234.841 149.531 234.841 150.608C234.841 151.685 235.714 152.558 236.791 152.558Z" fill="#F9FBFC"/>
    <path d="M245.901 150.618C245.911 151.015 245.802 151.407 245.588 151.742C245.375 152.077 245.066 152.342 244.701 152.501C244.337 152.66 243.933 152.707 243.542 152.635C243.151 152.564 242.79 152.377 242.505 152.1C242.22 151.822 242.025 151.466 241.944 151.077C241.862 150.687 241.899 150.283 242.049 149.914C242.198 149.546 242.455 149.23 242.785 149.008C243.114 148.786 243.503 148.668 243.901 148.668C244.423 148.667 244.924 148.871 245.298 149.236C245.671 149.6 245.888 150.096 245.901 150.618Z" fill="#F9FBFC"/>
    <path d="M251.111 152.558C252.188 152.558 253.061 151.685 253.061 150.608C253.061 149.531 252.188 148.658 251.111 148.658C250.034 148.658 249.161 149.531 249.161 150.608C249.161 151.685 250.034 152.558 251.111 152.558Z" fill="#F9FBFC"/>
    <path d="M258.271 152.558C259.348 152.558 260.221 151.685 260.221 150.608C260.221 149.531 259.348 148.658 258.271 148.658C257.194 148.658 256.321 149.531 256.321 150.608C256.321 151.685 257.194 152.558 258.271 152.558Z" fill="#F9FBFC"/>
    <rect width="40.5499" height="33.04" transform="translate(223.671 168.82)" fill="#E4EAED"/>
    <path d="M229.621 176.72C230.698 176.72 231.571 175.847 231.571 174.77C231.571 173.693 230.698 172.82 229.621 172.82C228.544 172.82 227.671 173.693 227.671 174.77C227.671 175.847 228.544 176.72 229.621 176.72Z" fill="#F9FBFC"/>
    <path d="M236.791 176.72C237.868 176.72 238.741 175.847 238.741 174.77C238.741 173.693 237.868 172.82 236.791 172.82C235.714 172.82 234.841 173.693 234.841 174.77C234.841 175.847 235.714 176.72 236.791 176.72Z" fill="#F9FBFC"/>
    <path d="M245.901 174.78C245.911 175.177 245.802 175.569 245.588 175.904C245.375 176.24 245.066 176.504 244.701 176.663C244.337 176.822 243.933 176.869 243.542 176.797C243.151 176.726 242.79 176.539 242.505 176.262C242.22 175.984 242.025 175.628 241.944 175.239C241.862 174.85 241.899 174.445 242.049 174.077C242.198 173.708 242.455 173.393 242.785 173.171C243.114 172.949 243.503 172.83 243.901 172.83C244.423 172.83 244.924 173.034 245.298 173.398C245.671 173.762 245.888 174.258 245.901 174.78Z" fill="#F9FBFC"/>
    <path d="M251.111 176.72C252.188 176.72 253.061 175.847 253.061 174.77C253.061 173.693 252.188 172.82 251.111 172.82C250.034 172.82 249.161 173.693 249.161 174.77C249.161 175.847 250.034 176.72 251.111 176.72Z" fill="#F9FBFC"/>
    <path d="M258.271 176.72C259.348 176.72 260.221 175.847 260.221 174.77C260.221 173.693 259.348 172.82 258.271 172.82C257.194 172.82 256.321 173.693 256.321 174.77C256.321 175.847 257.194 176.72 258.271 176.72Z" fill="#F9FBFC"/>
    <path d="M229.621 183.73C230.698 183.73 231.571 182.857 231.571 181.78C231.571 180.703 230.698 179.83 229.621 179.83C228.544 179.83 227.671 180.703 227.671 181.78C227.671 182.857 228.544 183.73 229.621 183.73Z" fill="#F9FBFC"/>
    <path d="M236.791 183.73C237.868 183.73 238.741 182.857 238.741 181.78C238.741 180.703 237.868 179.83 236.791 179.83C235.714 179.83 234.841 180.703 234.841 181.78C234.841 182.857 235.714 183.73 236.791 183.73Z" fill="#F9FBFC"/>
    <path d="M245.901 181.79C245.911 182.187 245.802 182.579 245.588 182.914C245.375 183.25 245.066 183.514 244.701 183.673C244.337 183.832 243.933 183.879 243.542 183.807C243.151 183.736 242.79 183.55 242.505 183.272C242.22 182.994 242.025 182.638 241.944 182.249C241.862 181.86 241.899 181.455 242.049 181.087C242.198 180.718 242.455 180.403 242.785 180.181C243.114 179.959 243.503 179.84 243.901 179.84C244.423 179.84 244.924 180.044 245.298 180.408C245.671 180.772 245.888 181.268 245.901 181.79Z" fill="#F9FBFC"/>
    <path d="M251.111 183.73C252.188 183.73 253.061 182.857 253.061 181.78C253.061 180.703 252.188 179.83 251.111 179.83C250.034 179.83 249.161 180.703 249.161 181.78C249.161 182.857 250.034 183.73 251.111 183.73Z" fill="#F9FBFC"/>
    <path d="M258.271 183.73C259.348 183.73 260.221 182.857 260.221 181.78C260.221 180.703 259.348 179.83 258.271 179.83C257.194 179.83 256.321 180.703 256.321 181.78C256.321 182.857 257.194 183.73 258.271 183.73Z" fill="#F9FBFC"/>
    <path d="M229.621 190.74C230.698 190.74 231.571 189.867 231.571 188.79C231.571 187.713 230.698 186.84 229.621 186.84C228.544 186.84 227.671 187.713 227.671 188.79C227.671 189.867 228.544 190.74 229.621 190.74Z" fill="#F9FBFC"/>
    <path d="M236.791 190.74C237.868 190.74 238.741 189.867 238.741 188.79C238.741 187.713 237.868 186.84 236.791 186.84C235.714 186.84 234.841 187.713 234.841 188.79C234.841 189.867 235.714 190.74 236.791 190.74Z" fill="#F9FBFC"/>
    <path d="M245.901 188.8C245.911 189.197 245.802 189.589 245.588 189.924C245.375 190.26 245.066 190.524 244.701 190.683C244.337 190.842 243.933 190.889 243.542 190.817C243.151 190.746 242.79 190.56 242.505 190.282C242.22 190.004 242.025 189.648 241.944 189.259C241.862 188.87 241.899 188.465 242.049 188.097C242.198 187.728 242.455 187.413 242.785 187.191C243.114 186.969 243.503 186.85 243.901 186.85C244.423 186.85 244.924 187.054 245.298 187.418C245.671 187.782 245.888 188.278 245.901 188.8Z" fill="#F9FBFC"/>
    <path d="M251.111 190.74C252.188 190.74 253.061 189.867 253.061 188.79C253.061 187.713 252.188 186.84 251.111 186.84C250.034 186.84 249.161 187.713 249.161 188.79C249.161 189.867 250.034 190.74 251.111 190.74Z" fill="#F9FBFC"/>
    <path d="M258.271 190.74C259.348 190.74 260.221 189.867 260.221 188.79C260.221 187.713 259.348 186.84 258.271 186.84C257.194 186.84 256.321 187.713 256.321 188.79C256.321 189.867 257.194 190.74 258.271 190.74Z" fill="#F9FBFC"/>
    <path d="M229.621 197.75C230.698 197.75 231.571 196.877 231.571 195.8C231.571 194.723 230.698 193.85 229.621 193.85C228.544 193.85 227.671 194.723 227.671 195.8C227.671 196.877 228.544 197.75 229.621 197.75Z" fill="#F9FBFC"/>
    <path d="M236.791 197.75C237.868 197.75 238.741 196.877 238.741 195.8C238.741 194.723 237.868 193.85 236.791 193.85C235.714 193.85 234.841 194.723 234.841 195.8C234.841 196.877 235.714 197.75 236.791 197.75Z" fill="#F9FBFC"/>
    <path d="M245.901 195.81C245.911 196.207 245.802 196.599 245.588 196.934C245.375 197.27 245.066 197.534 244.701 197.693C244.337 197.852 243.933 197.899 243.542 197.827C243.151 197.756 242.79 197.57 242.505 197.292C242.22 197.014 242.025 196.658 241.944 196.269C241.862 195.88 241.899 195.475 242.049 195.107C242.198 194.738 242.455 194.423 242.785 194.201C243.114 193.979 243.503 193.86 243.901 193.86C244.423 193.86 244.924 194.064 245.298 194.428C245.671 194.792 245.888 195.288 245.901 195.81Z" fill="#F9FBFC"/>
    <path d="M251.111 197.75C252.188 197.75 253.061 196.877 253.061 195.8C253.061 194.723 252.188 193.85 251.111 193.85C250.034 193.85 249.161 194.723 249.161 195.8C249.161 196.877 250.034 197.75 251.111 197.75Z" fill="#F9FBFC"/>
    <path d="M258.271 197.75C259.348 197.75 260.221 196.877 260.221 195.8C260.221 194.723 259.348 193.85 258.271 193.85C257.194 193.85 256.321 194.723 256.321 195.8C256.321 196.877 257.194 197.75 258.271 197.75Z" fill="#F9FBFC"/>
    <path d="M319.101 123.628H271.831V129.508H319.101V123.628Z" fill="#E4EAED"/>
    <path d="M330.461 135.918H271.831V138.468H330.461V135.918Z" fill="#E4EAED"/>
    <path d="M330.461 148.168H271.831V150.728H330.461V148.168Z" fill="#E4EAED"/>
    <path d="M330.461 142.048H271.831V144.598H330.461V142.048Z" fill="#E4EAED"/>
    <path d="M330.461 154.288H271.831V156.838H330.461V154.288Z" fill="#E4EAED"/>
    <path d="M319.101 169.778H271.831V175.658H319.101V169.778Z" fill="#E4EAED"/>
    <path d="M330.461 182.068H271.831V184.618H330.461V182.068Z" fill="#E4EAED"/>
    <path d="M330.461 194.318H271.831V196.868H330.461V194.318Z" fill="#E4EAED"/>
    <path d="M330.461 188.188H271.831V190.748H330.461V188.188Z" fill="#E4EAED"/>
    <path d="M330.461 200.438H271.831V202.988H330.461V200.438Z" fill="#E4EAED"/>
    <path d="M215.431 123.628H175.521V202.988H215.431V123.628Z" fill="#E4EAED"/>
    <path d="M195.471 183.788H179.851V199.408H195.471V183.788Z" fill="#F9FBFC"/>
    <path d="M188.341 149.428C193.842 149.428 198.301 144.968 198.301 139.468C198.301 133.967 193.842 129.508 188.341 129.508C182.84 129.508 178.381 133.967 178.381 139.468C178.381 144.968 182.84 149.428 188.341 149.428Z" fill="#F9FBFC"/>
    <path d="M198.911 149.968L185.801 172.668H212.021L198.911 149.968Z" fill="#F9FBFC"/>
    <g style="mix-blend-mode:multiply">
      <path d="M342.601 208.338V199.878C341.271 195.688 339.211 190.508 339.211 190.508C340.83 188 341.979 185.217 342.601 182.298V174.678C342.241 174.378 341.881 175.488 341.881 175.488C341.881 175.488 341.541 174.168 341.271 174.198C340.711 174.418 341.181 177.198 341.221 177.328C340.11 181.35 337.567 184.829 334.071 187.108C334.071 187.018 333.341 186.018 333.341 185.928C333.341 184.838 333.501 181.318 331.881 180.308C330.261 179.298 326.771 180.018 325.611 180.188C324.451 180.358 326.211 181.858 327.431 182.308C327.302 183.253 327.302 184.212 327.431 185.158C327.542 185.914 327.892 186.615 328.431 187.158C329.041 187.431 329.735 187.452 330.361 187.218C330.361 187.218 330.771 187.308 331.361 188.648C326.021 191.378 315.561 193.648 315.361 193.738C315.361 193.738 313.581 192.668 313.191 192.948C312.801 193.228 313.311 193.528 313.861 193.898C313.861 193.898 311.161 194.398 311.051 195.128C310.941 195.858 311.351 196.418 312.651 196.378C313.886 196.37 315.089 195.986 316.101 195.278L328.961 196.158L331.481 208.158C330.565 210.355 330.05 212.699 329.961 215.078H335.661C336.16 213.421 336.848 211.827 337.711 210.328C337.711 210.328 337.611 212.398 337.711 214.788C339.11 214.38 340.341 213.532 341.222 212.371C342.103 211.209 342.586 209.795 342.601 208.338Z" fill="#E0E1E2"/>
    </g>
    <path d="M343.311 175.528C343.441 176.398 343.511 181.828 339.561 188.038C339.561 188.038 344.141 199.588 344.071 202.128L343.681 202.418C342.261 203.418 337.231 206.588 331.911 205.738L329.391 193.738L316.181 194.958L315.441 193.418C315.611 193.358 326.441 188.908 331.761 186.178C332.56 185.782 333.338 185.345 334.091 184.868L334.421 184.628C337.918 182.345 340.461 178.863 341.571 174.838C341.571 174.838 343.171 174.658 343.311 175.528Z" fill="#EF5F7A"/>
    <path d="M313.271 192.658C313.661 192.368 315.441 193.438 315.441 193.438L316.181 194.978C315.169 195.686 313.966 196.07 312.731 196.078C311.431 196.128 311.011 195.568 311.131 194.828C311.251 194.088 313.941 193.598 313.941 193.598C313.391 193.228 312.891 192.958 313.271 192.658Z" fill="#EED7BA"/>
    <path d="M341.621 171.738C341.891 171.738 342.231 173.028 342.231 173.028C342.231 173.028 342.611 171.848 342.981 172.228C343.351 172.608 344.361 174.458 343.311 175.528C343.171 174.658 341.571 174.858 341.571 174.858C341.571 174.858 341.111 171.958 341.621 171.738Z" fill="#EED7BA"/>
    <path d="M331.021 181.258C331.781 181.518 331.651 182.518 331.831 182.838C332.011 183.158 331.831 183.838 333.691 183.458C333.691 183.548 334.381 184.548 334.421 184.648L334.091 184.888C333.338 185.365 332.56 185.802 331.761 186.198C331.131 184.868 330.761 184.778 330.761 184.778C330.134 185.007 329.443 184.986 328.831 184.718C328.289 184.177 327.938 183.475 327.831 182.718C327.702 181.772 327.702 180.813 327.831 179.868L328.061 179.938C329.291 180.258 329.701 181.828 329.711 182.448H330.071C330.071 182.448 329.451 180.438 331.021 181.258Z" fill="#EED7BA"/>
    <path d="M333.271 226.648V229.288C332.901 229.368 327.061 229.288 327.061 229.288L330.631 226.588L333.271 226.648Z" fill="#26363D"/>
    <path d="M346.111 226.178C346.111 226.178 343.231 229.518 340.801 229.328C340.721 229.388 342.801 225.958 342.931 225.438L345.031 224.098L346.111 226.178Z" fill="#26363D"/>
    <path d="M331.911 205.738C337.231 206.588 342.261 203.408 343.681 202.418C344.851 205.418 343.861 209.548 343.371 212.698C342.601 217.698 345.211 224.398 345.211 224.398L342.931 225.398C342.935 225.351 342.935 225.304 342.931 225.258C342.931 225.258 339.731 220.398 338.771 217.038C337.811 213.678 338.111 207.958 338.111 207.958C334.601 213.668 333.241 226.698 333.241 226.698L330.601 226.638C330.601 226.638 330.171 220.088 330.281 214.438C330.391 208.788 331.911 205.738 331.911 205.738Z" fill="#3A4D57"/>
    <path d="M331.321 182.848C331.131 182.538 331.481 181.328 330.871 181.208C329.871 180.748 330.021 182.428 330.021 182.428H329.661C329.622 182.088 329.552 181.754 329.451 181.428C329.309 180.986 329.054 180.59 328.711 180.278C328.351 179.978 327.711 179.948 327.581 179.448C327.541 179.19 327.567 178.927 327.657 178.682C327.746 178.438 327.895 178.219 328.091 178.048C328.518 177.668 329.06 177.442 329.631 177.408C330.522 177.24 331.444 177.396 332.231 177.848C333.851 178.848 333.701 182.368 333.691 183.458C331.881 183.828 331.501 183.168 331.321 182.848Z" fill="#3A4D57"/>
    <path d="M327.231 180.108C327.219 179.668 327.294 179.23 327.451 178.819C327.609 178.408 327.846 178.032 328.148 177.712C328.451 177.393 328.814 177.136 329.216 176.957C329.617 176.778 330.051 176.679 330.491 176.668C330.931 176.656 331.369 176.731 331.78 176.888C332.191 177.046 332.566 177.282 332.886 177.585C333.205 177.888 333.462 178.25 333.641 178.652C333.821 179.054 333.919 179.488 333.931 179.928L327.231 180.108Z" fill="#FBD15B"/>
    <path d="M327.231 180.118L333.931 179.938L334.671 179.918L334.691 180.488L333.891 180.508L333.401 180.518L330.861 180.588L330.601 180.598L327.371 180.688H327.301L326.501 180.708L326.491 180.138L327.231 180.118Z" fill="#FBD15B"/>
    <g style="mix-blend-mode:multiply">
      <path d="M171.611 215.118C171.251 213.618 170.841 211.978 170.341 210.118C170.598 209.912 170.869 209.725 171.151 209.558L169.291 201.758C168.162 202.191 166.983 202.48 165.781 202.618C166.971 202.419 168.144 202.132 169.291 201.758C168.891 197.758 170.111 191.558 170.111 191.558C169.311 191.668 168.701 191.478 168.431 190.758C168.568 191.071 168.813 191.324 169.122 191.471C169.43 191.618 169.782 191.649 170.111 191.558C171.461 191.248 172.77 190.781 174.011 190.168C176.381 189.168 181.601 185.168 181.601 185.168C185.381 183.568 184.521 180.918 184.221 180.618C183.681 180.098 182.221 182.618 182.221 182.618C182.221 182.618 182.651 181.208 182.171 181.108C181.691 181.008 181.841 182.108 180.701 183.468C179.561 184.828 172.331 186.558 170.371 186.718C169.943 186.755 169.511 186.707 169.101 186.578C168.649 186.439 168.223 186.226 167.841 185.948C167.609 185.783 167.395 185.595 167.201 185.388C167.201 185.388 167.201 185.338 167.201 185.318L167.521 184.388C167.799 184.392 168.077 184.368 168.351 184.318C168.541 184.258 168.761 183.998 169.041 182.898C169.196 182.08 169.23 181.245 169.141 180.418H169.281C169.377 180.419 169.471 180.391 169.551 180.338C169.971 180.068 169.621 179.278 169.621 179.278C169.621 179.278 168.831 175.708 165.411 176.088C163.891 176.268 163.621 177.578 163.411 178.758V208.348C163.414 209.848 163.917 211.305 164.841 212.488C164.841 212.178 164.841 211.878 164.841 211.548H165.181H165.461C165.97 212.437 166.434 213.352 166.851 214.288C167.865 214.866 169.013 215.169 170.181 215.168L171.611 215.118Z" fill="#E0E1E2"/>
    </g>
    <path d="M166.811 179.588C166.932 180.447 166.895 181.321 166.701 182.168C166.381 183.268 166.131 183.528 165.911 183.588C165.58 183.641 165.246 183.665 164.911 183.658L164.221 185.418L161.941 183.258L163.651 178.828L166.811 179.588Z" fill="#EED7BA"/>
    <path d="M169.391 226.958C169.621 228.228 169.711 229.108 169.711 229.108H175.301L173.041 227.328C173.041 227.328 171.651 228.128 169.401 226.958H169.391Z" fill="#F8A971"/>
    <path d="M158.691 227.498C158.14 227.692 157.549 227.744 156.972 227.65C156.395 227.555 155.851 227.317 155.391 226.958C155.291 227.148 154.781 228.538 154.761 228.668C154.741 228.798 154.821 228.858 154.931 228.898H155.001C155.401 229.018 159.231 229.148 160.081 229.188H160.681C160.736 229.207 160.796 229.207 160.851 229.188C160.851 229.188 160.851 229.128 160.851 229.088C160.801 229.006 160.737 228.935 160.661 228.878C160.467 228.716 160.263 228.565 160.051 228.428L159.411 227.988L158.691 227.498Z" fill="#F8A971"/>
    <path d="M167.941 190.858C167.021 190.958 166.321 190.778 166.011 190.058C165.291 188.368 165.301 186.728 166.801 185.858C166.286 185.724 165.796 185.508 165.351 185.218C165.043 185.039 164.761 184.821 164.511 184.568C164.688 185.128 164.815 185.704 164.891 186.288C164.831 186.858 164.001 186.798 163.841 187.288C163.681 187.778 164.291 188.438 164.061 189.138C163.831 189.838 163.301 190.408 160.691 190.608C159.862 190.625 159.045 190.405 158.337 189.975C157.629 189.544 157.057 188.921 156.691 188.178C155.799 189.904 155.278 191.798 155.161 193.738C154.841 196.358 154.811 198.938 154.741 199.798C156.741 204.208 167.001 201.088 167.001 201.088C166.531 197.088 167.941 190.888 167.941 190.888V190.858Z" fill="#F8A971"/>
    <path d="M162.511 210.678C164.016 212.988 165.285 215.444 166.301 218.008C167.628 220.88 168.663 223.878 169.391 226.958C171.641 228.128 173.041 227.338 173.031 227.328L171.901 226.428C171.901 226.428 171.961 221.278 168.151 209.318C166.367 210.103 164.457 210.563 162.511 210.678Z" fill="#EED7BA"/>
    <path d="M155.391 226.958C155.85 227.317 156.392 227.554 156.967 227.649C157.542 227.743 158.131 227.691 158.681 227.498L157.891 226.948C157.891 226.948 161.791 223.428 161.891 210.678C159.992 210.699 158.11 210.313 156.371 209.548C156.431 209.578 158.941 220.468 155.391 226.958Z" fill="#EED7BA"/>
    <path d="M168.261 185.958C167.77 185.995 167.276 185.947 166.801 185.818C165.301 186.688 165.041 188.178 166.011 190.018C166.2 190.344 166.492 190.6 166.841 190.744C167.19 190.889 167.576 190.915 167.941 190.818C169.482 190.512 170.987 190.046 172.431 189.428C175.151 188.428 181.161 184.428 181.161 184.428C185.511 182.828 184.521 180.168 184.161 179.878C183.531 179.348 181.871 181.878 181.871 181.878C181.871 181.878 182.371 180.458 181.871 180.368C181.371 180.278 181.491 181.368 180.181 182.728C178.871 184.088 170.521 185.828 168.261 185.958Z" fill="#EED7BA"/>
    <path d="M166.991 179.688C167.097 179.69 167.201 179.662 167.291 179.608C167.781 179.338 167.371 178.548 167.371 178.548C167.088 177.522 166.443 176.633 165.554 176.047C164.666 175.46 163.596 175.215 162.541 175.358C159.611 175.648 160.721 179.088 159.261 179.848C157.801 180.608 157.031 181.628 157.861 183.598C157.446 183.972 157.074 184.391 156.751 184.848C156.516 185.121 156.341 185.439 156.236 185.784C156.131 186.128 156.099 186.49 156.141 186.848C156.254 187.317 156.44 187.766 156.691 188.178C157.058 188.921 157.629 189.544 158.337 189.975C159.046 190.405 159.862 190.625 160.691 190.608C163.301 190.408 163.841 189.838 164.061 189.138C164.281 188.438 163.681 187.798 163.841 187.288C164.001 186.778 164.841 186.848 164.891 186.288C164.991 185.358 164.281 184.458 164.661 183.528C164.783 183.283 164.934 183.055 165.111 182.848C165.551 182.258 165.321 181.708 165.451 181.028C165.522 180.638 165.691 180.274 165.941 179.968C166.251 179.578 166.551 179.688 166.991 179.688Z" fill="#3A4D57"/>
    <path d="M167.001 201.088C167.001 201.088 159.251 203.908 154.741 199.798C154.611 201.358 155.551 209.798 155.551 209.798C157.666 210.685 159.969 211.029 162.251 210.798C167.791 210.428 168.251 209.248 169.131 208.888L167.001 201.088Z" fill="#0F7292"/>
    <path d="M160.281 177.438C160.281 176.549 160.634 175.697 161.262 175.069C161.89 174.44 162.742 174.088 163.631 174.088C164.519 174.088 165.371 174.44 166 175.069C166.628 175.697 166.981 176.549 166.981 177.438H160.281Z" fill="#FBD15B"/>
    <path d="M160.271 177.448H166.971H167.721V178.008H166.921H166.431L163.881 178.018H163.621H160.401H160.331H159.531V177.448H160.271Z" fill="#FBD15B"/>
    <g style="mix-blend-mode:multiply">
      <path d="M303.701 164.958L301.481 163.068C301.481 163.068 304.481 157.598 304.571 154.938C304.661 152.278 298.311 151.178 298.311 151.178C298.401 147.678 298.641 142.388 298.641 142.388C299.481 142.588 300.641 142.918 301.741 143.168C301.801 143.108 301.841 143.038 301.891 142.978C303.255 143.295 304.667 143.349 306.051 143.138C306.454 143.039 306.826 142.839 307.131 142.558L310.811 143.218L312.041 136.408C313.481 135.978 314.221 135.018 314.111 134.748C314.001 134.478 313.111 134.798 312.291 134.978L316.691 110.528L277.411 103.468L271.541 136.168L280.941 137.858C280.605 137.816 280.271 137.756 279.941 137.678C279.941 137.678 279.841 141.938 286.011 140.958V140.898L286.171 141.068C286.797 141.038 287.422 140.975 288.041 140.878C287.106 144.892 286.564 148.988 286.421 153.108H286.851V153.358C286.883 154.38 287.198 155.373 287.761 156.228C288.375 157.034 288.699 158.024 288.681 159.038C288.491 160.578 287.531 161.488 284.091 159.588V159.658C283.544 159.513 282.974 159.469 282.411 159.528C282.303 160.805 282.276 162.087 282.331 163.368C282.334 163.715 282.445 164.054 282.65 164.335C282.854 164.617 283.141 164.827 283.471 164.938H282.311L274.541 215.058H312.211L304.431 164.958H303.701ZM302.181 166.488L300.501 177.318H286.251L284.571 166.488H302.181ZM288.181 189.688L286.501 178.848H300.281L298.601 189.688H288.181ZM298.361 191.218L296.681 202.048H290.111L288.431 191.218H298.361ZM284.111 162.658V162.758C284.111 162.758 288.871 165.698 291.181 164.408C293.491 163.118 293.481 160.958 293.431 156.828C295.685 157.124 297.967 157.124 300.221 156.828C299.38 158.896 298.789 161.058 298.461 163.268H298.641C298.511 163.978 298.391 164.618 298.321 164.978H284.111C284.139 164.934 284.153 164.884 284.153 164.833C284.153 164.781 284.139 164.731 284.111 164.688C283.939 164.377 283.849 164.028 283.849 163.673C283.849 163.318 283.939 162.968 284.111 162.658ZM283.281 168.488L284.651 177.358H281.901L283.281 168.488ZM281.671 178.888H284.891L286.571 189.728H279.991L281.671 178.888ZM279.751 191.258H286.811L288.491 202.088H278.111L279.751 191.258ZM276.151 214.458L277.831 203.618H288.731L290.411 214.458H276.151ZM291.961 214.458L290.281 203.618H296.381L294.701 214.458H291.961ZM310.511 214.458H296.301L297.981 203.618H308.871L310.511 214.458ZM308.591 202.088H298.211L299.891 191.258H306.951L308.591 202.088ZM306.681 189.728H300.111L301.791 178.888H305.021L306.681 189.728ZM302.011 177.358L303.381 168.488L304.761 177.358H302.011Z" fill="#E0E1E2"/>
    </g>
    <path d="M310.437 110.546L271.156 103.493L265.284 136.19L304.566 143.243L310.437 110.546Z" fill="#D0DADD"/>
    <path d="M277.631 110.298C277.569 110.692 277.39 111.059 277.118 111.351C276.846 111.643 276.493 111.847 276.104 111.937C275.714 112.027 275.307 111.998 274.935 111.854C274.562 111.71 274.241 111.458 274.013 111.131C273.785 110.803 273.66 110.414 273.655 110.015C273.65 109.616 273.764 109.224 273.983 108.89C274.202 108.556 274.516 108.296 274.885 108.142C275.253 107.988 275.659 107.949 276.051 108.028C276.556 108.13 277.002 108.423 277.296 108.845C277.591 109.268 277.71 109.789 277.631 110.298Z" fill="#F9FBFC"/>
    <path d="M284.681 111.558C284.621 111.953 284.444 112.321 284.173 112.615C283.902 112.908 283.548 113.114 283.159 113.205C282.77 113.296 282.362 113.268 281.989 113.126C281.616 112.983 281.294 112.731 281.064 112.404C280.835 112.076 280.71 111.687 280.704 111.287C280.698 110.888 280.812 110.495 281.031 110.161C281.25 109.827 281.565 109.566 281.934 109.412C282.303 109.258 282.709 109.218 283.101 109.298C283.604 109.4 284.049 109.691 284.343 110.112C284.637 110.532 284.758 111.05 284.681 111.558Z" fill="#F9FBFC"/>
    <path d="M291.731 112.828C291.627 113.331 291.333 113.775 290.91 114.067C290.488 114.359 289.969 114.478 289.461 114.398C289.043 114.221 288.698 113.907 288.482 113.508C288.266 113.109 288.192 112.648 288.272 112.202C288.352 111.755 288.582 111.349 288.923 111.05C289.265 110.752 289.698 110.578 290.151 110.558C290.656 110.66 291.102 110.953 291.397 111.375C291.691 111.798 291.811 112.319 291.731 112.828Z" fill="#F9FBFC"/>
    <path d="M298.771 114.088C298.703 114.468 298.524 114.819 298.257 115.097C297.989 115.376 297.645 115.568 297.268 115.651C296.891 115.733 296.498 115.702 296.138 115.561C295.779 115.42 295.47 115.175 295.249 114.858C295.029 114.541 294.908 114.166 294.901 113.78C294.894 113.394 295.002 113.015 295.211 112.69C295.42 112.366 295.721 112.111 296.075 111.957C296.429 111.803 296.821 111.758 297.201 111.828C297.453 111.872 297.693 111.966 297.908 112.104C298.124 112.242 298.31 112.421 298.456 112.631C298.602 112.841 298.705 113.078 298.759 113.328C298.813 113.578 298.817 113.836 298.771 114.088Z" fill="#F9FBFC"/>
    <path d="M305.821 115.358C305.76 115.753 305.583 116.121 305.311 116.415C305.039 116.708 304.685 116.914 304.295 117.004C303.906 117.094 303.498 117.066 303.124 116.922C302.751 116.778 302.429 116.525 302.201 116.197C301.973 115.868 301.848 115.479 301.844 115.079C301.839 114.678 301.955 114.286 302.176 113.952C302.396 113.619 302.712 113.359 303.082 113.206C303.452 113.054 303.859 113.016 304.251 113.098C304.758 113.19 305.208 113.48 305.503 113.903C305.797 114.327 305.911 114.85 305.821 115.358Z" fill="#F9FBFC"/>
    <path d="M276.321 117.558C276.26 117.953 276.083 118.321 275.811 118.615C275.539 118.908 275.185 119.114 274.795 119.204C274.406 119.294 273.998 119.266 273.624 119.122C273.251 118.978 272.929 118.725 272.701 118.397C272.473 118.068 272.348 117.679 272.344 117.279C272.339 116.878 272.455 116.486 272.676 116.152C272.896 115.819 273.212 115.559 273.582 115.406C273.952 115.254 274.359 115.216 274.751 115.298C275.258 115.39 275.708 115.68 276.003 116.103C276.297 116.527 276.411 117.05 276.321 117.558Z" fill="#F9FBFC"/>
    <path d="M283.371 118.828C283.309 119.222 283.13 119.589 282.857 119.881C282.584 120.173 282.23 120.377 281.84 120.466C281.451 120.555 281.043 120.525 280.671 120.38C280.299 120.235 279.978 119.982 279.751 119.654C279.523 119.325 279.4 118.936 279.396 118.536C279.392 118.137 279.507 117.745 279.728 117.412C279.949 117.078 280.264 116.819 280.634 116.667C281.003 116.515 281.41 116.477 281.801 116.558C282.054 116.602 282.295 116.696 282.512 116.835C282.728 116.973 282.914 117.153 283.06 117.365C283.206 117.576 283.309 117.814 283.362 118.065C283.416 118.316 283.419 118.575 283.371 118.828Z" fill="#F9FBFC"/>
    <path d="M290.421 120.088C290.361 120.483 290.183 120.851 289.911 121.145C289.639 121.438 289.285 121.644 288.896 121.734C288.506 121.824 288.098 121.796 287.725 121.652C287.351 121.508 287.03 121.255 286.801 120.927C286.573 120.598 286.449 120.209 286.444 119.809C286.439 119.408 286.555 119.016 286.776 118.682C286.996 118.349 287.312 118.089 287.682 117.936C288.052 117.784 288.459 117.746 288.851 117.828C289.358 117.92 289.808 118.21 290.103 118.633C290.397 119.057 290.511 119.58 290.421 120.088Z" fill="#F9FBFC"/>
    <path d="M297.471 121.358C297.409 121.752 297.231 122.119 296.959 122.411C296.686 122.703 296.333 122.907 295.944 122.997C295.555 123.087 295.148 123.058 294.775 122.914C294.403 122.77 294.082 122.518 293.854 122.191C293.625 121.863 293.501 121.474 293.495 121.075C293.49 120.676 293.604 120.284 293.823 119.95C294.042 119.616 294.356 119.356 294.725 119.202C295.094 119.048 295.5 119.009 295.891 119.088C296.396 119.19 296.842 119.483 297.137 119.905C297.431 120.328 297.551 120.849 297.471 121.358Z" fill="#F9FBFC"/>
    <path d="M304.521 122.618C304.461 123.013 304.284 123.381 304.013 123.675C303.741 123.968 303.388 124.174 302.999 124.265C302.61 124.356 302.202 124.328 301.829 124.186C301.455 124.043 301.133 123.791 300.904 123.464C300.675 123.136 300.55 122.747 300.544 122.347C300.538 121.948 300.652 121.555 300.871 121.221C301.09 120.887 301.404 120.626 301.773 120.472C302.142 120.318 302.549 120.278 302.941 120.358C303.444 120.46 303.888 120.751 304.183 121.172C304.477 121.592 304.598 122.11 304.521 122.618Z" fill="#F9FBFC"/>
    <path d="M275.021 124.818C274.961 125.213 274.783 125.581 274.511 125.875C274.239 126.168 273.885 126.374 273.496 126.464C273.106 126.554 272.698 126.526 272.325 126.382C271.951 126.238 271.63 125.985 271.401 125.657C271.173 125.328 271.049 124.939 271.044 124.539C271.04 124.138 271.155 123.746 271.376 123.412C271.596 123.079 271.912 122.819 272.282 122.666C272.652 122.514 273.059 122.476 273.451 122.558C273.958 122.65 274.408 122.94 274.703 123.363C274.997 123.787 275.111 124.31 275.021 124.818Z" fill="#F9FBFC"/>
    <path d="M282.111 126.088C282.049 126.482 281.87 126.849 281.598 127.141C281.326 127.433 280.973 127.637 280.584 127.727C280.194 127.817 279.787 127.788 279.415 127.644C279.042 127.5 278.721 127.248 278.493 126.921C278.265 126.593 278.14 126.204 278.135 125.805C278.13 125.406 278.244 125.014 278.463 124.68C278.682 124.346 278.996 124.086 279.365 123.932C279.733 123.778 280.139 123.739 280.531 123.818C281.036 123.92 281.482 124.213 281.776 124.635C282.071 125.058 282.19 125.579 282.111 126.088Z" fill="#F9FBFC"/>
    <path d="M289.111 127.348C289.051 127.743 288.874 128.111 288.602 128.405C288.331 128.698 287.978 128.904 287.589 128.995C287.2 129.086 286.792 129.058 286.419 128.916C286.045 128.773 285.723 128.521 285.494 128.194C285.265 127.866 285.139 127.477 285.134 127.077C285.128 126.678 285.242 126.285 285.461 125.951C285.68 125.617 285.994 125.356 286.363 125.202C286.732 125.048 287.139 125.008 287.531 125.088C288.034 125.19 288.478 125.481 288.772 125.902C289.067 126.322 289.188 126.84 289.111 127.348Z" fill="#F9FBFC"/>
    <path d="M296.161 128.618C296.1 129.013 295.923 129.381 295.651 129.675C295.379 129.968 295.025 130.174 294.635 130.264C294.246 130.354 293.838 130.326 293.464 130.182C293.091 130.038 292.769 129.785 292.541 129.457C292.313 129.128 292.188 128.739 292.184 128.339C292.179 127.938 292.295 127.546 292.515 127.212C292.736 126.879 293.052 126.619 293.422 126.466C293.792 126.314 294.199 126.276 294.591 126.358C295.098 126.45 295.548 126.74 295.842 127.163C296.137 127.587 296.251 128.11 296.161 128.618Z" fill="#F9FBFC"/>
    <path d="M303.211 129.888C303.149 130.282 302.97 130.649 302.697 130.941C302.424 131.233 302.07 131.437 301.68 131.526C301.291 131.615 300.883 131.585 300.511 131.44C300.138 131.295 299.818 131.042 299.59 130.714C299.363 130.385 299.239 129.996 299.235 129.596C299.231 129.197 299.347 128.805 299.568 128.472C299.789 128.138 300.104 127.879 300.473 127.727C300.843 127.575 301.25 127.537 301.641 127.618C301.894 127.662 302.135 127.756 302.351 127.895C302.568 128.033 302.754 128.213 302.9 128.425C303.046 128.636 303.149 128.874 303.202 129.125C303.256 129.376 303.259 129.635 303.211 129.888Z" fill="#F9FBFC"/>
    <path d="M273.721 132.088C273.659 132.482 273.481 132.849 273.209 133.141C272.936 133.433 272.583 133.637 272.194 133.727C271.805 133.817 271.398 133.788 271.025 133.644C270.653 133.5 270.332 133.248 270.104 132.921C269.875 132.593 269.751 132.204 269.745 131.805C269.74 131.406 269.854 131.014 270.073 130.68C270.292 130.346 270.606 130.086 270.975 129.932C271.344 129.778 271.75 129.738 272.141 129.818C272.646 129.92 273.092 130.213 273.387 130.635C273.681 131.058 273.801 131.578 273.721 132.088Z" fill="#F9FBFC"/>
    <path d="M280.761 133.348C280.7 133.743 280.523 134.111 280.251 134.405C279.979 134.698 279.625 134.904 279.235 134.994C278.846 135.084 278.438 135.056 278.064 134.912C277.691 134.768 277.369 134.515 277.141 134.187C276.913 133.858 276.788 133.469 276.784 133.068C276.779 132.668 276.895 132.276 277.116 131.942C277.336 131.609 277.652 131.349 278.022 131.196C278.392 131.044 278.799 131.006 279.191 131.088C279.698 131.18 280.148 131.47 280.442 131.893C280.737 132.317 280.851 132.84 280.761 133.348Z" fill="#F9FBFC"/>
    <path d="M287.811 134.618C287.749 135.012 287.57 135.379 287.297 135.671C287.024 135.963 286.67 136.167 286.28 136.256C285.891 136.345 285.483 136.315 285.111 136.17C284.738 136.025 284.418 135.772 284.191 135.444C283.963 135.115 283.84 134.726 283.836 134.326C283.832 133.926 283.947 133.535 284.168 133.202C284.389 132.868 284.704 132.609 285.074 132.457C285.443 132.305 285.85 132.266 286.241 132.348C286.494 132.392 286.735 132.486 286.951 132.625C287.168 132.763 287.354 132.943 287.5 133.155C287.646 133.366 287.749 133.604 287.802 133.855C287.856 134.106 287.859 134.365 287.811 134.618Z" fill="#F9FBFC"/>
    <path d="M294.861 135.878C294.8 136.273 294.623 136.641 294.351 136.935C294.079 137.228 293.725 137.434 293.335 137.524C292.946 137.614 292.538 137.586 292.164 137.442C291.791 137.298 291.47 137.045 291.241 136.717C291.013 136.388 290.888 135.999 290.884 135.599C290.879 135.198 290.995 134.806 291.216 134.472C291.436 134.139 291.752 133.879 292.122 133.726C292.492 133.574 292.899 133.536 293.291 133.618C293.798 133.71 294.248 134 294.543 134.423C294.837 134.847 294.951 135.37 294.861 135.878Z" fill="#F9FBFC"/>
    <path d="M301.911 137.148C301.849 137.542 301.671 137.909 301.399 138.201C301.126 138.493 300.773 138.697 300.384 138.787C299.995 138.877 299.588 138.848 299.215 138.704C298.843 138.56 298.522 138.308 298.294 137.98C298.065 137.653 297.941 137.264 297.935 136.865C297.93 136.466 298.044 136.074 298.263 135.74C298.482 135.406 298.796 135.146 299.165 134.992C299.533 134.838 299.94 134.798 300.331 134.878C300.836 134.98 301.282 135.273 301.577 135.695C301.871 136.118 301.991 136.638 301.911 137.148Z" fill="#F9FBFC"/>
    <path d="M297.781 165.318H292.011C292.011 165.318 292.201 164.318 292.411 163.158C292.521 162.858 295.101 163.028 295.101 163.028L297.781 165.318Z" fill="#26363D"/>
    <path d="M285.551 152.958C283.888 153.127 282.213 153.127 280.551 152.958C280.551 153.118 280.551 153.288 280.551 153.448C280.583 154.47 280.898 155.463 281.461 156.318C282.07 157.126 282.394 158.115 282.381 159.128C282.181 160.668 281.231 161.578 277.781 159.678L277.871 162.788C277.871 162.788 282.641 165.728 284.951 164.438C287.261 163.148 287.261 160.868 287.191 156.508L285.551 152.958Z" fill="#3A4D57"/>
    <path d="M279.301 137.578C279.016 138.122 278.905 138.742 278.984 139.352C279.063 139.962 279.327 140.533 279.741 140.988C273.571 141.988 273.671 137.708 273.671 137.708C275.451 138.08 277.291 138.056 279.061 137.638L279.301 137.578Z" fill="#EED7BA"/>
    <path d="M307.841 134.778C307.981 135.108 306.841 136.458 304.791 136.628C304.791 136.628 302.021 142.768 299.791 143.168C298.356 143.389 296.891 143.325 295.481 142.978C295.947 142.536 296.302 141.991 296.517 141.386C296.733 140.781 296.803 140.134 296.721 139.498C297.394 139.777 298.13 139.87 298.851 139.768C300.331 139.418 302.411 136.348 302.991 135.688C303.571 135.028 305.231 133.438 305.651 133.688C306.071 133.938 304.561 134.998 304.771 135.208C304.981 135.418 307.701 134.458 307.841 134.778Z" fill="#EED7BA"/>
    <path d="M295.971 131.958C295.701 133.148 294.971 136.108 293.441 136.198C292.832 136.206 292.227 136.111 291.651 135.918C291.651 135.918 291.391 136.238 291.041 136.778C289.931 136.258 288.401 135.588 287.871 135.428H287.701C288.162 134.79 288.58 134.122 288.951 133.428C289.476 134.007 290.18 134.395 290.951 134.528C291.821 134.598 292.491 134.018 292.491 133.788C292.491 133.328 292.831 132.438 293.561 132.458C294.291 132.478 293.861 133.798 293.861 133.858C293.861 133.918 294.371 133.858 294.371 133.858C294.741 132.578 295.271 132.128 295.971 131.958Z" fill="#EED7BA"/>
    <path d="M284.521 153.008C284.521 153.008 284.521 156.228 287.181 156.828C289.435 157.124 291.717 157.124 293.971 156.828C293.13 158.896 292.539 161.058 292.211 163.268C293.214 163.353 294.224 163.295 295.211 163.098C295.211 163.098 298.211 157.628 298.301 154.968C298.391 152.308 292.041 151.208 292.041 151.208L284.521 153.008Z" fill="#3A4D57"/>
    <path d="M290.591 136.538C291.721 137.068 292.901 137.638 293.541 137.988C294.576 138.536 295.652 139 296.761 139.378C296.837 140.069 296.762 140.769 296.541 141.428C296.32 142.088 295.958 142.692 295.481 143.198C294.341 142.948 293.221 142.618 292.381 142.418C292.381 142.418 292.131 147.708 292.051 151.208C286.841 153.738 280.111 153.138 280.111 153.138C280.25 149.035 280.79 144.956 281.721 140.958C281.102 141.055 280.477 141.119 279.851 141.148C279.367 140.715 279.047 140.128 278.947 139.486C278.847 138.844 278.972 138.187 279.301 137.628C282.301 136.298 283.171 135.348 284.521 135.188C285.586 135.103 286.658 135.177 287.701 135.408H287.871C288.798 135.733 289.706 136.11 290.591 136.538Z" fill="#00ACB3"/>
    <path d="M277.831 159.728C277.264 159.576 276.675 159.529 276.091 159.588C275.987 160.865 275.964 162.147 276.021 163.428C276.027 163.84 276.183 164.236 276.459 164.543C276.734 164.85 277.112 165.047 277.521 165.098C277.571 165.105 277.622 165.1 277.668 165.081C277.715 165.063 277.756 165.032 277.787 164.992C277.818 164.952 277.837 164.904 277.843 164.854C277.849 164.804 277.841 164.754 277.821 164.708C277.646 164.394 277.554 164.041 277.554 163.683C277.554 163.324 277.646 162.971 277.821 162.658L277.831 159.728Z" fill="#26363D"/>
    <path d="M295.465 129.76C295.681 129.852 295.863 130.009 295.985 130.21C296.141 130.442 296.243 130.707 296.283 130.984C296.322 131.261 296.299 131.543 296.215 131.81C296.045 132.25 295.395 132.28 295.055 132.63C294.718 133.007 294.478 133.46 294.355 133.95C294.355 133.95 293.845 134.02 293.845 133.95C293.845 133.88 294.265 132.56 293.545 132.55C292.825 132.54 292.695 133.47 292.695 133.93C292.695 134.17 291.805 134.69 290.935 134.62C290.154 134.548 289.405 134.272 288.765 133.82C288.855 133.65 289.105 133.17 289.185 132.98C289.735 131.65 290.105 129.23 291.845 128.98C292.221 128.932 292.604 128.949 292.975 129.03C293.607 129.147 294.229 129.315 294.835 129.53C295.095 129.61 295.265 129.67 295.465 129.76Z" fill="#EF5F7A"/>
    <path d="M289.791 130.188C290.027 129.331 290.594 128.603 291.366 128.164C292.139 127.725 293.054 127.612 293.911 127.848C294.768 128.084 295.495 128.65 295.934 129.423C296.373 130.196 296.487 131.111 296.251 131.968L289.801 130.188H289.791Z" fill="#FBD15B"/>
    <path d="M289.781 130.198L296.241 131.978L296.961 132.178L296.811 132.718L296.041 132.508L295.561 132.378L293.111 131.698L292.861 131.628L289.751 130.778L289.681 130.758L288.911 130.548L289.061 129.998L289.781 130.198Z" fill="#FBD15B"/>
    <path d="M296.831 166.528H295.831L294.151 177.358H295.711L297.081 168.488L296.831 166.528ZM267.981 226.818L269.661 215.958H284.391L284.111 214.458H269.901L271.581 203.618H282.471L282.241 202.088H271.821L273.501 191.258H280.561L280.321 189.728H273.731L275.411 178.888H278.641L278.401 177.358H275.651L277.031 168.488L276.481 164.998H276.021L265.781 230.998H267.341L267.741 228.368H286.301L285.891 230.998H286.721L286.071 226.838L267.981 226.818ZM292.291 189.728H293.841L295.521 178.888H293.971L292.291 189.728ZM288.451 214.458H290.001L291.681 203.618H290.111L288.451 214.458ZM290.371 202.088H291.921L293.601 191.258H292.051L290.371 202.088ZM287.111 223.308L287.651 226.818H288.111L289.771 215.958H288.211L287.111 223.308Z" fill="#09667C"/>
    <path d="M298.111 164.958H276.481L277.031 168.448L278.401 177.318L278.641 178.848L280.321 189.688L280.561 191.218L282.241 202.048L282.471 203.578L284.111 214.458L284.351 215.988L286.111 226.818L286.761 230.978H288.311L287.901 228.348H306.411L306.821 230.978H308.371L298.111 164.958ZM278.241 166.488H296.801L297.101 168.488L298.481 177.358H279.951L278.241 166.488ZM280.161 178.848H298.711L300.391 189.688H281.871L280.161 178.848ZM282.111 191.258H300.661L302.341 202.088H283.791L282.111 191.258ZM284.031 203.618H302.581L304.261 214.458H285.701L284.031 203.618ZM287.621 226.818L287.081 223.308L285.941 215.958H304.501L306.181 226.788L287.621 226.818Z" fill="#0F7292"/>
    <g style="mix-blend-mode:multiply">
      <path d="M248.575 245.333H172.265C171.776 245.33 171.309 245.137 170.963 244.795C170.618 244.453 170.423 243.991 170.42 243.508C170.423 243.024 170.618 242.562 170.963 242.22C171.309 241.878 171.776 241.685 172.265 241.682H248.575C249.063 241.685 249.531 241.878 249.876 242.22C250.222 242.562 250.417 243.024 250.42 243.508C250.417 243.991 250.222 244.453 249.876 244.795C249.531 245.137 249.063 245.33 248.575 245.333Z" fill="#D1D3D4"/>
    </g>
    <path d="M192.723 205.333H190.406V242.78H192.723V205.333Z" fill="#DFE7EA"/>
    <path d="M230.774 205.333H228.457V242.78H230.774V205.333Z" fill="#DFE7EA"/>
    <path d="M236.089 208.146H184.74C184.091 208.146 183.565 208.667 183.565 209.309V217.761C183.565 218.403 184.091 218.923 184.74 218.923H236.089C236.738 218.923 237.264 218.403 237.264 217.761V209.309C237.264 208.667 236.738 208.146 236.089 208.146Z" fill="#F79663"/>
    <path d="M195.348 208.146L187.43 218.923H184.74C184.586 218.923 184.434 218.893 184.292 218.834C184.15 218.776 184.021 218.69 183.913 218.582C183.805 218.474 183.719 218.346 183.661 218.205C183.603 218.064 183.574 217.913 183.576 217.761V217.087L190.11 208.179L195.348 208.146Z" fill="#DFE7EA"/>
    <path d="M206.033 208.146L198.126 218.923H192.888L200.795 208.146H206.033Z" fill="#DFE7EA"/>
    <path d="M216.729 208.146L208.811 218.923H203.584L211.491 208.146H216.729Z" fill="#DFE7EA"/>
    <path d="M227.425 208.146L219.507 218.923H214.28L222.186 208.146H227.425Z" fill="#DFE7EA"/>
    <path d="M237.275 209.309L230.181 218.923H224.943L232.85 208.146H236.067C236.224 208.142 236.38 208.169 236.527 208.225C236.673 208.282 236.807 208.367 236.919 208.475C237.032 208.583 237.121 208.713 237.183 208.856C237.244 208.999 237.275 209.153 237.275 209.309Z" fill="#DFE7EA"/>
    <path d="M236.089 220.77H184.74C184.091 220.77 183.565 221.29 183.565 221.932V230.384C183.565 231.026 184.091 231.547 184.74 231.547H236.089C236.738 231.547 237.264 231.026 237.264 230.384V221.932C237.264 221.29 236.738 220.77 236.089 220.77Z" fill="#F79663"/>
    <path d="M195.348 220.77L187.43 231.547H184.74C184.586 231.548 184.434 231.519 184.293 231.462C184.151 231.405 184.022 231.32 183.913 231.213C183.805 231.105 183.719 230.978 183.661 230.837C183.603 230.697 183.574 230.547 183.576 230.395V229.678L190.11 220.77H195.348Z" fill="#DFE7EA"/>
    <path d="M206.033 220.77L198.126 231.547H192.888L200.795 220.77H206.033Z" fill="#DFE7EA"/>
    <path d="M216.729 220.77L208.811 231.547H203.584L211.491 220.77H216.729Z" fill="#DFE7EA"/>
    <path d="M227.425 220.77L219.507 231.547H214.28L222.186 220.77H227.425Z" fill="#DFE7EA"/>
    <path d="M237.275 221.932L230.181 231.547H224.943L232.85 220.77H236.067C236.224 220.766 236.38 220.792 236.527 220.849C236.673 220.905 236.807 220.99 236.919 221.099C237.032 221.207 237.121 221.337 237.183 221.48C237.244 221.623 237.275 221.777 237.275 221.932Z" fill="#DFE7EA"/>
    <path d="M386.96 197.439C395.222 197.439 401.92 186.765 401.92 173.599C401.92 160.432 395.222 149.759 386.96 149.759C378.698 149.759 372 160.432 372 173.599C372 186.765 378.698 197.439 386.96 197.439Z" fill="#1D88A0"/>
    <path d="M394.7 184.149L387.67 190.319V174.689H386.24V185.049L379.72 179.369L386.24 186.879V216.449H387.67V192.159L394.7 184.149Z" fill="#289AAD"/>
    <path d="M34.5 197.583C39.7467 197.583 44 190.701 44 182.211C44 173.722 39.7467 166.84 34.5 166.84C29.2533 166.84 25 173.722 25 182.211C25 190.701 29.2533 197.583 34.5 197.583Z" fill="#1D88A0"/>
    <path d="M39.415 189.014L34.9508 192.992V182.914H34.0427V189.594L29.9023 185.932L34.0427 190.774V209.84H34.9508V194.178L39.415 189.014Z" fill="#289AAD"/>
    <path d="M50.7359 236.098C53.6159 234.348 54.8959 231.688 54.2659 230.368C53.6359 229.048 50.2159 228.158 46.6259 230.068C46.7359 229.528 48.4959 221.248 46.6259 220.508C45.1159 219.928 42.0159 224.508 41.3259 225.508C42.0159 219.508 41.8759 216.388 40.8859 216.098C40.1659 215.892 38.9893 217.225 37.3559 220.098C36.7659 218.038 36.1759 217.008 35.5959 217.008C34.4426 217.008 33.3126 220.982 32.2059 228.928C31.6659 226.028 30.5059 220.848 28.9759 220.838C27.0659 220.838 25.5759 228.838 25.1459 231.278C22.6659 228.658 21.1459 227.538 20.5859 227.898C20.0259 228.258 20.7159 231.198 23.0859 236.428L50.7359 236.098Z" fill="#1D88A0"/>
    <path d="M95.2652 256.044C98.1452 254.294 99.4252 251.634 98.7952 250.314C98.1652 248.994 94.7452 248.104 91.1552 250.014C91.2652 249.474 93.0252 241.194 91.1552 240.454C89.6452 239.874 86.5452 244.454 85.8552 245.454C86.5452 239.454 86.4052 236.334 85.4152 236.044C84.6952 235.837 83.5186 237.17 81.8852 240.044C81.2952 237.984 80.7052 236.954 80.1252 236.954C78.9719 236.954 77.8419 240.927 76.7352 248.874C76.1952 245.974 75.0352 240.794 73.5052 240.784C71.5952 240.784 70.1052 248.784 69.6752 251.224C67.1952 248.604 65.6752 247.484 65.1152 247.844C64.5552 248.204 65.2452 251.144 67.6152 256.374L95.2652 256.044Z" fill="#1D88A0"/>
    <path d="M429.493 206.99C426.623 205.23 425.343 202.58 425.973 201.25C426.603 199.92 430.023 199.04 433.613 200.96C433.493 200.42 431.743 192.13 433.613 191.4C435.123 190.81 438.223 195.4 438.913 196.4C438.223 190.4 438.363 187.28 439.353 186.99C440.073 186.77 441.253 188.1 442.883 190.99C443.473 188.93 444.063 187.9 444.643 187.9C445.789 187.9 446.916 191.87 448.023 199.81C448.573 196.92 449.733 191.74 451.263 191.72C453.173 191.72 454.663 199.72 455.083 202.17C457.573 199.55 459.083 198.42 459.643 198.78C460.203 199.14 459.523 202.08 457.143 207.31L429.493 206.99Z" fill="#1D88A0"/>
    <g style="mix-blend-mode:multiply">
      <path d="M453.539 243.123H433.019C432.572 243.123 432.209 243.486 432.209 243.933V244.883C432.209 245.33 432.572 245.693 433.019 245.693H453.539C453.986 245.693 454.349 245.33 454.349 244.883V243.933C454.349 243.486 453.986 243.123 453.539 243.123Z" fill="#D1D3D4"/>
    </g>
    <path d="M450.519 242.433H435.889L437.249 238.053L438.499 234.003L439.649 230.303L440.909 226.303L441.109 225.643C441.248 225.198 441.526 224.809 441.902 224.532C442.278 224.256 442.733 224.107 443.199 224.107C443.666 224.107 444.12 224.256 444.496 224.532C444.872 224.809 445.15 225.198 445.289 225.643L445.489 226.303L446.749 230.303L447.899 234.003L449.149 238.053L450.519 242.433Z" fill="#F79663"/>
    <path d="M450.899 244.413H435.499C435.288 244.414 435.081 244.353 434.904 244.237C434.728 244.12 434.589 243.955 434.507 243.76C434.425 243.565 434.402 243.35 434.441 243.143C434.481 242.935 434.581 242.744 434.729 242.593C434.829 242.489 434.949 242.407 435.081 242.35C435.213 242.293 435.355 242.264 435.499 242.263H450.899C451.043 242.263 451.186 242.293 451.318 242.349C451.45 242.406 451.57 242.489 451.669 242.593C451.817 242.744 451.918 242.935 451.957 243.143C451.997 243.35 451.974 243.565 451.892 243.76C451.809 243.955 451.671 244.12 451.494 244.237C451.318 244.353 451.111 244.414 450.899 244.413Z" fill="#F79663"/>
    <path d="M446.749 230.303H439.649L440.899 226.253H445.489L446.749 230.303Z" fill="#F9FBFC"/>
    <path d="M449.149 238.043H437.239L438.499 234.003H447.889L449.149 238.043Z" fill="#F9FBFC"/>
    <g style="mix-blend-mode:multiply">
      <path d="M67.1909 239.693H46.6708C46.2235 239.693 45.8608 240.055 45.8608 240.503V241.453C45.8608 241.9 46.2235 242.263 46.6708 242.263H67.1909C67.6382 242.263 68.0009 241.9 68.0009 241.453V240.503C68.0009 240.055 67.6382 239.693 67.1909 239.693Z" fill="#D1D3D4"/>
    </g>
    <path d="M64.171 239.003H49.541L50.901 234.623L52.151 230.573L53.301 226.873L54.561 222.873L54.761 222.213C54.9004 221.768 55.1783 221.379 55.5542 221.102C55.9301 220.826 56.3845 220.677 56.851 220.677C57.3175 220.677 57.7719 220.826 58.1478 221.102C58.5237 221.379 58.8016 221.768 58.941 222.213L59.141 222.873L60.401 226.873L61.551 230.573L62.801 234.623L64.171 239.003Z" fill="#F79663"/>
    <path d="M64.5511 240.983H49.1511C48.9397 240.984 48.7326 240.923 48.556 240.807C48.3794 240.69 48.2411 240.524 48.1588 240.33C48.0764 240.135 48.0536 239.92 48.0931 239.713C48.1327 239.505 48.2329 239.314 48.3811 239.163C48.481 239.059 48.6005 238.977 48.7328 238.92C48.865 238.863 49.0072 238.834 49.1511 238.833H64.5511C64.695 238.833 64.8374 238.863 64.9697 238.919C65.102 238.976 65.2215 239.059 65.3211 239.163C65.4693 239.314 65.5695 239.505 65.6091 239.713C65.6486 239.92 65.6258 240.135 65.5434 240.33C65.461 240.524 65.3228 240.69 65.1462 240.807C64.9696 240.923 64.7625 240.984 64.5511 240.983Z" fill="#F79663"/>
    <path d="M60.4008 226.873H53.3008L54.5508 222.823H59.1408L60.4008 226.873Z" fill="#F9FBFC"/>
    <path d="M62.8011 234.613H50.8911L52.1511 230.573H61.5411L62.8011 234.613Z" fill="#F9FBFC"/>
    <g style="mix-blend-mode:multiply">
      <path d="M365.138 257.055H339.187C338.621 257.055 338.163 257.509 338.163 258.069V259.257C338.163 259.816 338.621 260.27 339.187 260.27H365.138C365.704 260.27 366.163 259.816 366.163 259.257V258.069C366.163 257.509 365.704 257.055 365.138 257.055Z" fill="#D1D3D4"/>
    </g>
    <path d="M361.319 256.192H342.817L344.537 250.714L346.118 245.648L347.572 241.02L349.166 236.017L349.418 235.191C349.595 234.634 349.946 234.147 350.422 233.802C350.897 233.456 351.472 233.27 352.062 233.27C352.652 233.27 353.226 233.456 353.702 233.802C354.177 234.147 354.529 234.634 354.705 235.191L354.958 236.017L356.551 241.02L358.006 245.648L359.587 250.714L361.319 256.192Z" fill="#F79663"/>
    <path d="M361.8 258.669H342.324C342.056 258.671 341.795 258.594 341.571 258.449C341.348 258.303 341.173 258.096 341.069 257.852C340.965 257.608 340.936 257.34 340.986 257.08C341.036 256.82 341.163 256.581 341.35 256.392C341.476 256.263 341.628 256.16 341.795 256.089C341.962 256.018 342.142 255.981 342.324 255.98H361.8C361.982 255.98 362.162 256.017 362.329 256.088C362.497 256.159 362.648 256.262 362.774 256.392C362.961 256.581 363.088 256.82 363.138 257.08C363.188 257.34 363.159 257.608 363.055 257.852C362.951 258.096 362.776 258.303 362.552 258.449C362.329 258.594 362.067 258.671 361.8 258.669Z" fill="#F79663"/>
    <path d="M356.551 241.02H347.572L349.153 235.954H354.957L356.551 241.02Z" fill="#F9FBFC"/>
    <path d="M359.587 250.701H344.524L346.118 245.648H357.993L359.587 250.701Z" fill="#F9FBFC"/>
    <path d="M460.509 84.9925H458.509C458.622 84.7373 458.68 84.4614 458.679 84.1825C458.674 83.6201 458.448 83.0824 458.049 82.6857C457.65 82.289 457.112 82.0651 456.549 82.0625H451.549C451.67 81.7744 451.731 81.4649 451.729 81.1525C451.729 80.508 451.473 79.8899 451.017 79.4342C450.562 78.9785 449.944 78.7225 449.299 78.7225H441.669C441.024 78.7225 440.405 78.9782 439.947 79.4336C439.49 79.889 439.232 80.5071 439.229 81.1525C439.23 81.4655 439.295 81.7751 439.419 82.0625H437.669C437.108 82.0651 436.57 82.2893 436.173 82.6863C435.776 83.0833 435.552 83.621 435.549 84.1825C435.549 84.4614 435.607 84.7373 435.719 84.9925H432.989C432.642 84.9925 432.309 85.1305 432.063 85.3762C431.817 85.6218 431.679 85.955 431.679 86.3025C431.679 86.6499 431.817 86.9831 432.063 87.2288C432.309 87.4745 432.642 87.6125 432.989 87.6125H460.509C460.857 87.6125 461.19 87.4745 461.435 87.2288C461.681 86.9831 461.819 86.6499 461.819 86.3025C461.819 85.955 461.681 85.6218 461.435 85.3762C461.19 85.1305 460.857 84.9925 460.509 84.9925Z" fill="#1EE0DB"/>
    <path d="M33.1898 47.6909H31.1898C31.3024 47.4358 31.3603 47.1599 31.3599 46.881C31.3546 46.3186 31.1282 45.7809 30.7296 45.3842C30.331 44.9874 29.7922 44.7635 29.2299 44.7609H24.2299C24.3508 44.4729 24.412 44.1633 24.4099 43.851C24.4099 43.2065 24.1538 42.5884 23.6981 42.1327C23.2424 41.677 22.6243 41.4209 21.9799 41.4209H14.3499C13.7045 41.4209 13.0854 41.6766 12.6281 42.1321C12.1707 42.5875 11.9125 43.2056 11.9099 43.851C11.9111 44.164 11.9758 44.4735 12.0999 44.7609H10.3499C9.7884 44.7636 9.25071 44.9878 8.8537 45.3848C8.45669 45.7818 8.23249 46.3195 8.22986 46.881C8.22943 47.1599 8.28732 47.4358 8.39984 47.6909H5.66986C5.32243 47.6909 4.9892 47.829 4.74353 48.0746C4.49786 48.3203 4.35986 48.6535 4.35986 49.0009C4.35986 49.3484 4.49786 49.6816 4.74353 49.9273C4.9892 50.1729 5.32243 50.3109 5.66986 50.3109H33.1898C33.5373 50.3109 33.8705 50.1729 34.1161 49.9273C34.3618 49.6816 34.4998 49.3484 34.4998 49.0009C34.4998 48.6535 34.3618 48.3203 34.1161 48.0746C33.8705 47.829 33.5373 47.6909 33.1898 47.6909Z" fill="#1EE0DB"/>
    <path d="M103.417 128.231H101.417C101.53 127.976 101.588 127.7 101.587 127.421C101.582 126.859 101.356 126.321 100.957 125.924C100.559 125.528 100.02 125.304 99.4574 125.301H94.4574C94.5783 125.013 94.6395 124.703 94.6374 124.391C94.6374 123.747 94.3814 123.129 93.9257 122.673C93.4699 122.217 92.8519 121.961 92.2074 121.961H84.5774C83.932 121.961 83.3129 122.217 82.8556 122.672C82.3983 123.128 82.14 123.746 82.1374 124.391C82.1387 124.704 82.2033 125.014 82.3274 125.301H80.5774C80.0159 125.304 79.4782 125.528 79.0812 125.925C78.6842 126.322 78.46 126.86 78.4574 127.421C78.457 127.7 78.5149 127.976 78.6274 128.231H75.8974C75.55 128.231 75.2167 128.369 74.9711 128.615C74.7254 128.86 74.5874 129.194 74.5874 129.541C74.5874 129.889 74.7254 130.222 74.9711 130.467C75.2167 130.713 75.55 130.851 75.8974 130.851H103.417C103.765 130.851 104.098 130.713 104.344 130.467C104.589 130.222 104.727 129.889 104.727 129.541C104.727 129.194 104.589 128.86 104.344 128.615C104.098 128.369 103.765 128.231 103.417 128.231Z" fill="#1EE0DB"/>
    <path d="M346.883 36.7132H288.033C287.544 36.7132 287.075 36.5197 286.728 36.1749C286.381 35.8301 286.185 35.3621 286.183 34.8732C286.183 34.3826 286.378 33.912 286.724 33.5651C287.071 33.2181 287.542 33.0232 288.033 33.0232H346.883C347.126 33.0232 347.366 33.0711 347.591 33.164C347.815 33.257 348.019 33.3933 348.191 33.5651C348.363 33.7369 348.499 33.9408 348.592 34.1653C348.685 34.3897 348.733 34.6303 348.733 34.8732C348.73 35.3621 348.534 35.8301 348.187 36.1749C347.841 36.5197 347.372 36.7132 346.883 36.7132Z" fill="#1EE0DB"/>
    <path d="M334.492 34.8832H295.962C294.99 34.8806 294.058 34.4931 293.37 33.8054C292.683 33.1177 292.295 32.1857 292.292 31.2132C292.295 30.2407 292.683 29.3087 293.37 28.621C294.058 27.9334 294.99 27.5459 295.962 27.5432H334.492C335.465 27.5459 336.397 27.9334 337.085 28.621C337.772 29.3087 338.16 30.2407 338.162 31.2132C338.16 32.1857 337.772 33.1177 337.085 33.8054C336.397 34.4931 335.465 34.8806 334.492 34.8832Z" fill="#1EE0DB"/>
    <path d="M300.232 30.4132H313.182C313.958 30.4106 314.702 30.101 315.251 29.5521C315.8 29.0032 316.11 28.2595 316.112 27.4832C316.112 26.7052 315.804 25.9589 315.255 25.4078C314.705 24.8568 313.96 24.5459 313.182 24.5432H300.232C299.454 24.5459 298.709 24.8568 298.16 25.4078C297.611 25.9589 297.302 26.7052 297.302 27.4832C297.305 28.2595 297.614 29.0032 298.163 29.5521C298.712 30.101 299.456 30.4106 300.232 30.4132Z" fill="#1EE0DB"/>
  </g>
  <defs>
    <linearGradient id="paint0_linear_798_54577" x1="250.505" y1="294.663" x2="250.505" y2="193.627" gradientUnits="userSpaceOnUse">
      <stop stop-color="#16D8D8"/>
      <stop offset="1" stop-color="#2A809A"/>
    </linearGradient>
    <clipPath id="clip0_798_54577">
      <rect width="500.84" height="280.79" fill="white" transform="translate(0 0.709991)"/>
    </clipPath>
  </defs>
</svg>