<?xml version="1.0" encoding="UTF-8" standalone="no"?>
<svg
   xmlns="http://www.w3.org/2000/svg"
   width="24"
   height="24"
   viewBox="0 0 24 24"
   version="1.1"
   >
  <path
     d="m 22.44639,9.7691857 c -3.129042,1.6660813 -7.464642,2.0269483 -9.189369,2.1042763 h -0.02003 c -0.312905,0 -0.508157,-0.325717 -0.335434,-0.57645 0.941216,-1.3684825 3.466978,-4.7357936 6.601027,-6.4299939 0.473111,-0.2554188 0.988777,-0.3772699 1.499437,-0.3772699 1.036338,0 2.045141,0.5038078 2.600859,1.403632 0.838584,1.3567662 0.300388,3.1025189 -1.156494,3.8758055 z"
     id="path1448"
     style="fill:#ff00ff;stroke-width:0.0242241" />
  <path
     d="m 11.129272,12.693615 c -0.941216,1.368482 -3.4669784,4.735793 -6.6010264,6.429994 -0.473111,0.255419 -0.988778,0.37727 -1.499437,0.37727 -1.036339,0 -2.04514201,-0.503808 -2.60086001,-1.403632 -0.838583,-1.356767 -0.300388,-3.102519 1.15649401,-3.875806 3.129042,-1.666081 7.464642,-2.026948 9.1893704,-2.104276 h 0.02003 c 0.312904,-0.0023 0.508156,0.325717 0.335433,0.57645 z"
     id="path1446"
     style="fill:#00ffff;stroke-width:0.0242241" />
  <path
     d="m 10.768807,11.859402 h -0.02003 C 9.0115366,11.779732 4.6333816,11.41652 1.5018366,9.7223198 0.06748359,8.9466902 -0.42565341,7.2290569 0.40041359,5.8840071 0.95362759,4.9841829 1.9699406,4.4874049 3.0112856,4.4874049 c 0.530686,0 1.066378,0.1265377 1.552005,0.3936729 3.106513,1.7035737 5.6072434,5.0380786 6.5409494,6.3971882 0.172723,0.255419 -0.02253,0.581136 -0.335433,0.581136 z"
     id="path1444"
     style="fill:#00ff00;stroke-width:0.0242241" />
  <path
     d="m 23.582858,18.104276 c -0.553214,0.899825 -1.569527,1.396603 -2.610872,1.396603 -0.528183,0 -1.066378,-0.126538 -1.552005,-0.393673 -3.106513,-1.703574 -5.607243,-5.038079 -6.540949,-6.397189 -0.172723,-0.250732 0.02253,-0.578793 0.335434,-0.578793 h 0.02002 c 1.737244,0.07967 6.1154,0.442882 9.249448,2.137083 1.431849,0.77563 1.924986,2.49092 1.098919,3.835969 z"
     id="path1442"
     style="stroke-width:0.0242241" />
  <path
     d="m 15.006781,21.188049 c 0,1.55126 -1.341734,2.809607 -2.998874,2.811951 h -0.005 c -1.67216,0 -3.0138934,-1.3099 -3.0038814,-2.87522 0.02253,-3.369654 1.8574004,-7.065026 2.6484214,-8.501464 0.0751,-0.135911 0.215278,-0.203867 0.35546,-0.203867 0.140181,0 0.282865,0.06796 0.355459,0.203867 0.796028,1.445811 2.648421,5.178676 2.648421,8.564733 z"
     id="path1440"
     style="fill:#ff0000;stroke-width:0.0242241" />
  <path
     d="m 15.006781,2.8752197 c -0.02253,3.3696544 -1.857399,7.0650262 -2.648421,8.5014643 -0.0751,0.135911 -0.215278,0.203867 -0.355459,0.203867 -0.140182,0 -0.282866,-0.06796 -0.35546,-0.203867 C 10.851413,9.9308728 8.9990196,6.1980082 8.9990196,2.8119509 8.9990196,1.2606913 10.340754,0.00234328 11.997894,0 h 0.005 c 1.67216,0 3.013893,1.3099004 3.00388,2.8752197 z"
     id="path867"
     style="fill:#ffff00;stroke-width:0.0242241" />
</svg>
